<svg class="img-fluid" xmlns="http://www.w3.org/2000/svg" width="125" height="125" viewBox="0 0 1250 1250"><g fill="rgb(49,49,3)"><g><path d="M608 1238 c-29 -10 -32 -18 -22 -55 4 -16 18 -26 45 -33 21 -6 41 -15 44 -20 3 -6 25 -10 49 -10 53 0 82 28 92 88 6 40 5 42 -19 42 -19 0 -28 -7 -35 -29 -8 -21 -18 -30 -41 -33 -28 -4 -32 -1 -43 29 -13 35 -24 38 -70 21z"></path></g></g><g fill="rgb(67,94,5)"><g><path d="M45 251 c-20 -4 -30 -12 -30 -25 0 -14 21 -25 100 -52 55 -18 126 -39 158 -45 32 -7 56 -13 54 -15 -12 -12 -167 -35 -239 -36 -88 0 -88 0 -88 -27 0 -28 0 -28 113 -34 257 -15 296 -9 370 62 23 22 57 53 75 70 21 19 32 39 32 56 0 25 -3 27 -32 22 -185 -31 -198 -31 -254 -12 -30 10 -54 24 -54 32 0 10 -21 13 -87 12 -49 -1 -101 -4 -118 -8z"></path></g></g><g fill="rgb(110,40,33)"><g><path d="M805 1214 c-9 -48 2 -55 31 -21 31 36 31 57 0 57 -19 0 -25 -7 -31 -36z"></path><path d="M0 716 c0 -60 6 -66 40 -38 19 15 20 22 13 52 -7 25 -16 36 -31 38 -20 3 -22 -1 -22 -52z"></path><path d="M702 73 c-31 -4 -52 -30 -52 -64 0 -5 38 -9 85 -9 77 0 102 8 75 25 -5 3 -10 17 -10 31 0 25 -11 27 -98 17z"></path></g></g><g fill="rgb(213,13,37)"><g><path d="M224 1236 c-3 -8 -4 -25 -2 -38 3 -20 9 -23 56 -26 28 -2 52 -7 52 -13 0 -10 30 -12 54 -3 21 8 20 25 -1 63 -17 30 -21 31 -86 31 -49 0 -69 -4 -73 -14z"></path><path d="M596 1014 c-3 -9 -6 -35 -6 -60 0 -44 0 -44 48 -37 26 3 48 6 49 7 0 1 4 18 8 39 6 32 5 37 -11 37 -11 0 -28 7 -38 15 -26 19 -42 19 -50 -1z"></path><path d="M23 993 c-4 -9 -7 -46 -7 -82 -1 -64 0 -66 26 -69 26 -3 28 0 34 47 4 28 13 56 20 62 21 18 17 46 -8 53 -39 10 -58 7 -65 -11z"></path><path d="M963 988 c-13 -6 -23 -16 -23 -23 0 -6 -6 -23 -12 -38 -11 -23 -18 -26 -38 -22 -14 4 -29 13 -33 21 -9 16 -59 19 -85 4 -9 -5 -61 -16 -115 -23 -97 -14 -97 -14 -105 17 -8 29 -11 31 -53 31 -42 0 -44 -1 -47 -32 -2 -24 -11 -37 -33 -50 -35 -21 -38 -43 -5 -43 14 0 27 -4 30 -9 10 -15 -5 -41 -23 -41 -26 0 -61 -29 -61 -51 0 -29 28 -35 66 -14 32 17 37 17 74 2 39 -15 110 -13 110 3 0 4 9 10 20 13 23 6 28 51 8 61 -7 4 -2 4 12 0 14 -3 35 -8 48 -11 14 -3 30 1 41 11 18 16 20 15 36 -28 10 -25 23 -46 29 -46 6 0 0 -7 -12 -16 -12 -8 -22 -21 -22 -29 0 -8 -10 -21 -21 -29 -16 -11 -20 -21 -15 -38 10 -40 22 -49 65 -55 40 -6 41 -5 41 24 0 61 44 143 76 143 7 0 14 6 17 13 4 10 7 9 18 0 7 -7 18 -13 24 -13 10 0 35 66 35 95 0 17 -31 20 -46 5 -14 -14 -31 1 -39 38 -7 32 -7 32 34 32 39 0 41 2 41 30 0 17 5 30 11 30 16 0 6 45 -11 47 -8 1 -25 -3 -37 -9z"></path></g></g><g fill="rgb(93,124,47)" ><g><path d="M1016 778 c-23 -33 -20 -58 7 -58 30 1 67 33 67 59 0 30 -53 29 -74 -1z"></path><path d="M1190 517 c-19 -6 -38 -16 -42 -23 -5 -7 -17 -10 -29 -7 -40 11 -53 -47 -19 -90 24 -31 25 -46 4 -62 -12 -8 -14 -18 -9 -34 6 -21 12 -23 52 -18 31 3 54 13 74 33 28 27 29 31 29 121 0 101 1 99 -60 80z"></path><path d="M288 510 c-24 -15 -22 -30 7 -63 29 -31 34 -32 95 -13 79 23 59 74 -33 82 -28 3 -60 0 -69 -6z"></path><path d="M395 382 c-17 -9 -41 -27 -55 -40 -14 -13 -36 -22 -56 -22 -18 0 -34 -5 -36 -11 -5 -14 -80 -30 -175 -36 -73 -5 -73 -5 -73 -39 0 -28 4 -34 21 -34 17 0 19 3 10 14 -19 22 2 29 111 34 81 4 98 2 98 -10 0 -8 22 -22 51 -32 41 -15 66 -17 132 -12 92 8 103 12 83 32 -18 17 -60 18 -86 2 -17 -11 -26 -10 -57 7 -43 24 -55 44 -21 38 15 -3 30 3 42 16 11 12 29 21 41 21 52 0 76 83 25 87 -14 1 -39 -5 -55 -15z"></path><path d="M70 192 c0 -24 32 -45 81 -54 135 -25 135 -25 -8 -27 -133 -1 -143 -2 -143 -20 0 -23 22 -28 120 -25 87 3 205 28 225 48 12 11 6 15 -38 20 -29 4 -91 21 -139 37 -96 32 -98 33 -98 21z"></path><path d="M1029 73 c-7 -19 -7 -35 1 -51 10 -22 15 -24 65 -20 63 5 71 10 60 35 -4 10 -7 28 -6 39 2 19 -3 21 -54 23 -52 1 -56 -1 -66 -26z"></path><path d="M70 21 c0 -12 37 -21 93 -21 56 0 62 15 10 24 -55 9 -103 7 -103 -3z"></path></g></g><g fill="rgb(170,82,22)" ><g><path d="M945 1206 c0 -25 -4 -48 -8 -53 -14 -14 -62 22 -71 54 -10 31 -10 31 -59 -23 -34 -37 -57 -54 -73 -54 -18 0 -24 -5 -22 -17 2 -12 -4 -19 -19 -21 -23 -3 -34 -42 -13 -42 6 0 10 -9 10 -20 0 -26 15 -25 40 0 14 14 28 18 44 14 16 -4 25 -1 29 10 9 23 33 19 55 -9 11 -14 26 -25 33 -25 14 1 59 63 59 81 0 14 15 11 43 -11 14 -11 32 -20 41 -20 18 0 22 35 6 45 -6 4 -10 21 -9 38 2 18 2 47 1 65 -2 31 -4 32 -44 32 -43 0 -43 0 -43 -44z m-85 -70 c0 -2 -8 -10 -17 -17 -16 -13 -17 -12 -4 4 13 16 21 21 21 13z"></path><path d="M1160 1215 c0 -28 4 -35 20 -35 11 0 20 5 20 10 0 6 11 10 25 10 20 0 25 5 25 25 0 23 -4 25 -45 25 -45 0 -45 0 -45 -35z"></path><path d="M1166 920 c-3 -18 -6 -36 -6 -40 0 -3 20 -7 45 -7 44 0 45 1 45 34 0 25 -4 33 -17 33 -10 0 -27 3 -39 6 -18 5 -22 0 -28 -26z"></path></g></g><g fill="rgb(245,9,37)" ><g><path d="M188 1209 c-18 -13 -28 -30 -28 -47 0 -37 47 -102 74 -102 29 0 66 27 66 49 0 10 9 26 20 36 33 30 25 41 -32 40 -47 0 -53 2 -56 23 -4 27 -9 27 -44 1z"></path><path d="M2 963 c3 -128 3 -128 36 -131 23 -2 32 1 32 11 0 10 -7 13 -20 10 -28 -7 -35 18 -24 86 8 50 12 56 32 55 20 -1 23 3 20 35 -2 29 -8 37 -25 39 -13 2 -23 8 -23 13 0 5 -7 9 -15 9 -13 0 -15 -19 -13 -127z"></path><path d="M550 985 c-14 -7 -36 -11 -48 -8 -13 3 -41 0 -62 -7 -30 -10 -40 -19 -42 -38 -5 -44 -28 -39 -28 6 0 43 -12 52 -77 52 -26 0 -33 -4 -33 -20 0 -11 -7 -20 -16 -20 -21 0 -85 -70 -82 -89 3 -12 17 -16 63 -16 64 0 64 0 80 -76 4 -20 12 -28 35 -31 26 -4 39 3 76 38 49 45 50 64 6 64 -27 0 -27 0 3 20 20 13 32 30 35 52 5 30 8 33 39 33 31 0 36 -4 43 -33 8 -30 11 -32 41 -27 57 9 162 25 170 25 14 0 7 28 -9 34 -24 9 -64 7 -64 -3 0 -5 -18 -11 -40 -13 -40 -4 -40 -4 -40 34 0 42 -10 46 -50 23z"></path><path d="M96 975 c-3 -9 0 -15 9 -15 8 0 15 7 15 15 0 8 -4 15 -9 15 -5 0 -11 -7 -15 -15z"></path><path d="M987 934 c-3 -3 -3 -13 0 -21 5 -12 -2 -15 -33 -13 -58 4 -76 1 -69 -10 4 -6 11 -8 16 -5 5 4 9 1 9 -5 0 -8 9 -10 26 -6 22 6 27 2 37 -23 17 -45 34 -46 42 -3 6 36 -14 99 -28 86z"></path><path d="M615 801 c-3 -6 2 -14 11 -19 24 -13 11 -42 -16 -35 -15 4 -19 2 -15 -10 8 -20 -42 -27 -81 -10 -40 17 -70 16 -100 -3 -23 -16 -24 -18 -8 -35 15 -17 14 -18 -22 -21 -51 -4 -65 -38 -43 -101 15 -40 18 -42 59 -45 41 -3 42 -2 38 23 -7 37 30 72 47 45 3 -5 15 -10 26 -10 10 0 19 -6 19 -14 0 -23 19 -29 49 -16 25 10 33 8 66 -14 21 -14 43 -26 49 -26 6 0 20 -18 30 -41 23 -48 30 -53 60 -45 15 4 30 20 40 43 9 21 21 46 26 55 6 10 10 24 10 32 0 20 -21 31 -30 16 -12 -20 -66 -3 -79 26 -10 22 -8 30 14 56 14 16 25 35 25 42 0 17 -71 89 -103 104 -33 14 -64 16 -72 3z"></path><path d="M1195 800 c-3 -5 -3 -20 0 -33 6 -22 4 -23 -23 -19 -50 7 -111 -74 -84 -114 7 -11 127 -25 150 -17 8 3 12 31 12 93 0 71 -3 89 -16 94 -22 8 -32 8 -39 -4z"></path><path d="M790 392 c0 -44 26 -72 66 -72 46 0 45 26 -2 68 -45 40 -64 41 -64 4z"></path></g></g><g fill="rgb(127,100,65)" ><g><path d="M0 500 c0 -120 0 -120 25 -120 14 0 28 7 31 15 8 21 -16 185 -27 185 -5 0 -9 9 -9 20 0 11 -4 20 -10 20 -6 0 -10 -47 -10 -120z"></path><path d="M1082 499 c4 -27 65 -38 74 -14 4 8 14 15 24 15 11 0 22 5 25 10 4 6 -18 10 -60 10 -62 0 -66 -1 -63 -21z"></path></g></g><g fill="rgb(106,146,88)" ><g><path d="M380 385 c0 -8 7 -15 15 -15 8 0 15 7 15 15 0 8 -7 15 -15 15 -8 0 -15 -7 -15 -15z"></path><path d="M0 155 c0 -56 0 -56 145 -53 86 2 146 7 148 13 2 9 -13 13 -123 31 -52 8 -83 21 -76 33 7 11 -39 31 -69 31 -24 0 -25 -3 -25 -55z"></path><path d="M524 137 c-12 -7 -33 -26 -48 -44 -41 -49 -104 -75 -178 -73 -89 2 -98 1 -98 -10 0 -6 54 -10 143 -10 179 0 201 8 211 76 8 59 -1 77 -30 61z"></path><path d="M1001 118 c2 -53 13 -91 28 -96 9 -3 12 0 9 9 -3 8 -1 24 3 37 8 20 15 23 50 20 85 -6 46 44 -43 57 -48 6 -48 6 -47 -27z"></path><path d="M1135 69 c-9 -27 19 -59 36 -42 15 15 3 63 -16 63 -7 0 -17 -10 -20 -21z"></path><path d="M617 41 c-22 -38 -22 -41 11 -41 22 0 31 7 44 35 16 35 16 35 -11 35 -19 0 -32 -9 -44 -29z"></path><path d="M1053 3 c4 -3 10 -3 14 0 3 4 0 7 -7 7 -7 0 -10 -3 -7 -7z"></path></g></g><g fill="rgb(232,132,4)" ><g><path d="M380 1230 c0 -33 112 -55 124 -24 15 39 8 44 -59 44 -58 0 -65 -2 -65 -20z"></path><path d="M1100 1240 c0 -5 -7 -10 -15 -10 -8 0 -15 -7 -15 -15 0 -8 5 -15 10 -15 6 0 10 -11 10 -24 0 -21 6 -24 52 -29 28 -4 53 -5 54 -4 1 1 6 15 10 31 6 26 5 28 -15 21 -18 -5 -21 -2 -21 24 0 29 -3 31 -35 31 -19 0 -35 -4 -35 -10z"></path><path d="M940 1114 c0 -9 -9 -27 -20 -41 -22 -28 -19 -65 8 -95 13 -16 17 -16 43 -3 21 11 30 12 35 3 4 -6 2 -14 -4 -16 -26 -8 -10 -20 37 -26 58 -8 111 -32 117 -55 3 -9 10 -24 15 -33 5 -10 9 -27 9 -37 0 -22 13 -34 24 -23 4 4 15 7 24 7 12 0 18 10 20 33 4 43 -14 65 -50 60 -22 -4 -28 -1 -23 9 3 8 5 20 5 27 0 8 12 11 35 8 35 -4 35 -4 35 57 0 50 -3 61 -17 61 -14 0 -73 -55 -73 -69 0 -3 -4 -12 -9 -20 -14 -22 -90 17 -91 47 0 15 -6 22 -20 22 -17 0 -20 6 -18 27 2 21 -4 32 -31 50 -40 27 -51 29 -51 7z"></path><path d="M922 882 c-8 -5 -10 -19 -6 -40 8 -37 39 -52 62 -28 34 33 -16 94 -56 68z"></path></g></g><g fill="rgb(248,46,83)" ><g><path d="M0 1199 c0 -49 1 -51 23 -45 14 3 32 -1 43 -9 18 -14 18 -14 -2 -15 -24 0 -56 -41 -46 -57 4 -6 16 -12 27 -14 14 -3 21 -13 23 -36 2 -21 9 -33 24 -36 11 -3 17 -10 13 -16 -3 -6 1 -11 9 -11 8 0 21 10 27 22 6 12 20 31 30 41 16 17 22 18 48 7 72 -29 126 21 97 90 -15 36 -15 36 -31 -15 -2 -8 -16 -20 -30 -27 -24 -11 -29 -9 -51 18 -43 53 -42 71 7 115 44 38 44 38 -83 39 -128 0 -128 0 -128 -51z"></path><path d="M519 1173 c-10 -2 -26 -33 -40 -75 -15 -46 -30 -73 -41 -76 -10 -2 -18 -8 -18 -13 0 -5 -4 -9 -10 -9 -5 0 -10 9 -10 20 0 26 -22 26 -37 0 -11 -17 -10 -88 3 -128 6 -21 44 5 44 31 0 27 54 51 93 42 27 -7 102 25 109 47 3 8 10 6 24 -8 10 -10 27 -18 38 -16 14 3 17 0 11 -17 -8 -25 16 -29 35 -7 14 18 9 62 -8 59 -6 -2 -12 6 -12 17 0 11 -5 20 -10 20 -6 0 -8 11 -4 25 7 29 -26 64 -62 65 -11 0 -29 7 -40 15 -19 14 -35 16 -65 8z"></path><path d="M76 948 c-14 -44 -15 -78 -2 -78 13 0 46 31 46 43 0 4 -9 16 -20 27 -15 15 -22 17 -24 8z"></path><path d="M4 870 c1 -54 1 -55 34 -58 26 -3 32 0 32 15 0 14 -7 19 -27 18 -25 0 -29 4 -34 40 -6 35 -7 34 -5 -15z"></path><path d="M426 804 c-15 -22 -16 -28 -5 -35 15 -9 51 27 46 45 -6 19 -22 15 -41 -10z"></path><path d="M245 795 c-22 -8 -41 -15 -42 -15 -2 0 -3 -18 -3 -40 0 -22 -4 -40 -10 -40 -10 0 -40 -91 -40 -123 0 -16 6 -19 35 -15 19 2 35 0 35 -4 0 -4 -7 -8 -15 -8 -9 0 -20 -11 -24 -24 -5 -13 -17 -26 -25 -29 -17 -7 -23 -47 -7 -47 5 0 11 -9 14 -20 3 -11 12 -20 21 -20 25 0 93 49 99 70 3 13 20 23 50 30 44 12 44 12 26 50 -30 61 -16 100 37 100 28 0 35 4 32 18 -2 13 -11 16 -36 14 -18 -2 -32 1 -32 7 0 18 -40 13 -47 -6 -5 -14 -8 -13 -15 6 -4 13 -4 30 2 41 14 26 12 70 -2 70 -7 -1 -31 -7 -53 -15z m52 -152 c-4 -3 -7 0 -7 7 0 7 3 10 7 7 3 -4 3 -10 0 -14z"></path><path d="M1050 800 c0 -5 7 -10 15 -10 23 0 18 -20 -10 -42 -32 -25 -24 -38 25 -38 34 0 41 4 46 25 4 16 0 30 -10 40 -9 9 -16 21 -16 26 0 5 -11 9 -25 9 -14 0 -25 -4 -25 -10z"></path><path d="M436 594 c-27 -28 -33 -44 -15 -44 6 0 8 -9 4 -20 -5 -16 -2 -20 14 -20 12 0 21 5 21 10 0 27 103 4 123 -27 5 -8 24 -10 57 -6 34 4 50 2 50 -6 0 -6 11 -11 24 -11 22 0 23 2 13 23 -6 13 -27 30 -46 40 -20 9 -44 22 -53 29 -14 10 -24 10 -48 1 -29 -11 -32 -10 -40 12 -6 15 -15 23 -23 19 -8 -3 -20 2 -27 11 -17 20 -23 19 -54 -11z"></path><path d="M903 520 c-18 -11 -33 -26 -33 -33 0 -7 -11 -23 -25 -35 -19 -17 -25 -18 -25 -7 0 19 -7 19 -26 1 -16 -17 -19 -66 -4 -66 6 0 10 7 10 15 0 21 3 19 44 -17 44 -39 45 -50 4 -46 -25 2 -34 -1 -36 -14 -4 -21 11 -23 74 -7 32 8 44 16 44 30 0 11 4 19 8 19 5 0 19 9 32 20 13 11 31 20 41 20 21 0 24 5 34 48 5 25 3 32 -9 32 -8 0 -21 10 -27 23 -23 43 -55 48 -106 17z"></path><path d="M740 435 c0 -8 7 -15 16 -15 14 0 14 3 4 15 -7 8 -14 15 -16 15 -2 0 -4 -7 -4 -15z"></path></g></g><g fill="rgb(146,169,63)" ><g><path d="M522 420 c-28 -26 -28 -53 -1 -89 26 -36 18 -52 -21 -44 -16 3 -45 2 -65 -1 -30 -6 -35 -11 -35 -36 0 -32 16 -48 33 -31 14 14 57 14 57 0 0 -8 15 -9 46 -4 44 6 46 5 41 -14 -3 -15 0 -21 10 -21 11 0 14 9 11 35 -3 30 -1 34 22 37 19 2 26 10 28 31 3 23 0 27 -20 27 -21 0 -23 5 -23 39 0 47 -22 91 -45 91 -9 0 -26 -9 -38 -20z"></path><path d="M1157 94 c-3 -4 -2 -15 4 -26 12 -21 -3 -48 -27 -48 -7 0 -16 -4 -19 -10 -4 -6 20 -10 64 -10 71 0 71 0 71 50 0 50 0 50 -43 50 -24 0 -47 -3 -50 -6z"></path></g></g><g fill="rgb(190,102,87)" ><g><path d="M830 1133 c-19 -25 -20 -28 -5 -31 19 -4 45 15 45 34 0 25 -19 24 -40 -3z"></path><path d="M763 1077 c-4 -8 -19 -20 -31 -26 -19 -10 -22 -18 -17 -38 4 -17 0 -32 -11 -44 -16 -18 -15 -19 10 -29 38 -14 46 -13 46 9 0 11 5 21 10 23 11 3 17 104 7 114 -3 3 -9 -1 -14 -9z"></path></g></g><g fill="rgb(119,146,121)" ><g><path d="M42 455 c2 -36 8 -65 13 -65 6 1 20 9 33 20 17 14 21 25 16 44 -3 14 -12 26 -19 26 -7 0 -15 9 -18 20 -3 11 -10 20 -16 20 -8 0 -11 -22 -9 -65z"></path><path d="M164 418 c-3 -4 -2 -28 1 -52 6 -38 4 -46 -16 -60 -13 -9 -38 -16 -56 -16 -24 0 -33 -5 -33 -16 0 -13 9 -15 53 -10 107 11 147 21 147 37 0 5 15 9 34 9 23 0 41 8 57 25 13 13 29 25 35 25 6 0 18 8 25 17 12 15 12 16 -3 10 -12 -4 -15 -2 -11 9 3 9 -1 14 -15 14 -11 0 -34 3 -51 6 -26 6 -31 4 -31 -14 0 -12 -9 -22 -22 -25 -24 -7 -48 8 -48 29 0 8 -3 14 -7 15 -5 0 -18 2 -31 3 -13 2 -25 -1 -28 -6z"></path><path d="M990 337 c0 -13 5 -28 12 -35 8 -8 8 -15 -2 -27 -12 -14 -15 -14 -31 1 -21 19 -53 15 -57 -8 -2 -11 8 -23 27 -32 25 -13 47 -15 121 -8 50 4 93 6 95 3 3 -2 5 -14 5 -26 0 -13 7 -28 15 -35 8 -7 15 -23 15 -36 0 -20 5 -24 30 -24 30 0 30 0 30 127 0 127 0 127 -33 95 -52 -50 -115 -56 -108 -9 0 4 -11 7 -25 7 -14 0 -32 7 -40 15 -24 24 -54 19 -54 -8z"></path><path d="M946 125 c-21 -19 -46 -35 -57 -35 -10 0 -19 -6 -19 -14 0 -7 -15 -24 -34 -37 -19 -13 -32 -27 -30 -31 3 -4 62 -8 131 -8 126 0 126 0 104 24 -18 19 -24 37 -25 80 -1 68 -16 72 -70 21z"></path><path d="M543 118 c2 -63 -4 -77 -38 -94 -19 -9 -35 -18 -35 -20 0 -2 31 -4 69 -4 67 0 71 1 88 30 9 17 26 30 36 30 28 0 17 34 -13 38 -13 2 -33 10 -44 18 -25 17 -64 18 -63 2z"></path><path d="M0 16 c0 -14 14 -16 103 -16 56 0 108 4 114 8 7 4 -15 8 -50 9 -34 0 -86 4 -114 8 -45 6 -53 5 -53 -9z"></path></g></g><g fill="rgb(142,157,94)" ><g><path d="M16 677 c-16 -12 -18 -21 -12 -60 4 -26 11 -47 15 -47 15 0 33 74 24 98 -8 20 -11 21 -27 9z"></path><path d="M413 523 c-17 -6 -16 -18 3 -37 19 -20 12 -32 -23 -39 -16 -3 -36 -9 -45 -12 -11 -4 -25 3 -43 23 -26 30 -27 30 -46 11 -25 -25 -25 -65 0 -79 28 -14 51 -12 51 4 0 11 9 13 38 9 20 -3 42 -10 49 -15 6 -5 23 -6 37 -2 19 4 28 2 32 -10 8 -21 -23 -56 -49 -56 -11 0 -29 -8 -40 -17 -10 -10 -31 -18 -46 -18 -37 0 -33 -24 8 -52 36 -24 106 -34 83 -11 -18 18 -15 48 6 50 9 1 39 2 67 2 59 1 70 21 35 68 -24 32 -20 57 11 76 34 21 55 -17 50 -89 -2 -22 3 -27 28 -31 29 -4 29 -4 36 68 8 83 1 116 -23 113 -39 -3 -62 2 -62 15 0 9 -17 15 -47 19 -27 3 -59 8 -73 10 -14 2 -31 2 -37 0z"></path><path d="M50 400 c-7 -4 -22 -7 -32 -5 -16 3 -18 -4 -18 -66 0 -69 0 -69 48 -69 40 1 44 2 27 12 -30 17 -30 17 -7 38 25 24 27 38 9 73 -9 18 -18 23 -27 17z"></path></g></g><g fill="rgb(136,171,137)" ><g><path d="M220 439 c-17 -14 -21 -22 -12 -26 6 -2 12 -10 12 -17 0 -7 8 -20 18 -29 16 -14 23 -15 45 -4 34 15 34 20 -2 34 -20 7 -30 19 -33 36 -3 26 -3 26 -28 6z"></path><path d="M64 405 c-4 -10 -2 -26 4 -36 16 -25 16 -23 -18 -57 -35 -35 -25 -43 41 -35 57 7 78 19 89 49 15 38 -2 60 -47 62 -23 1 -43 8 -50 18 -12 16 -13 16 -19 -1z"></path><path d="M83 263 c4 -3 10 -3 14 0 3 4 0 7 -7 7 -7 0 -10 -3 -7 -7z"></path><path d="M1063 241 c-40 -4 -74 -9 -76 -12 -2 -2 -2 -21 0 -41 4 -32 10 -39 45 -53 21 -8 43 -13 48 -10 4 3 21 -6 37 -19 21 -18 38 -23 69 -21 23 1 46 5 53 9 19 12 12 26 -15 26 -15 0 -23 4 -19 10 4 6 -2 23 -12 38 -10 15 -20 38 -23 52 -6 29 -11 30 -107 21z"></path><path d="M495 20 c-3 -5 -2 -10 4 -10 5 0 13 5 16 10 3 6 2 10 -4 10 -5 0 -13 -4 -16 -10z"></path><path d="M445 10 c-4 -6 3 -10 14 -10 25 0 27 6 6 13 -8 4 -17 2 -20 -3z"></path></g></g><g fill="rgb(245,178,33)" ><g><path d="M660 1235 c0 -8 5 -25 12 -39 9 -22 16 -25 46 -21 41 5 48 11 57 48 7 27 7 27 -54 27 -47 0 -61 -3 -61 -15z"></path><path d="M853 1234 c-11 -29 11 -68 52 -91 22 -12 42 -22 45 -22 12 -2 9 113 -3 121 -23 15 -87 9 -94 -8z"></path><path d="M1021 1183 c1 -38 6 -74 12 -81 8 -11 7 -16 -6 -23 -25 -14 -23 -59 3 -59 16 0 20 -7 20 -31 0 -17 4 -28 10 -24 5 3 18 1 29 -4 14 -8 18 -18 15 -41 -3 -17 -1 -30 5 -30 6 0 11 -13 11 -30 0 -23 4 -30 20 -30 11 0 20 -4 20 -10 0 -5 7 -10 15 -10 17 0 21 35 5 45 -5 3 -10 14 -10 24 0 19 -33 55 -42 45 -3 -3 -9 -1 -13 5 -4 7 4 11 19 11 15 0 27 7 30 18 8 25 60 82 74 82 18 0 16 154 -2 169 -20 17 -43 3 -43 -25 0 -32 0 -32 -51 -26 -40 4 -43 7 -39 28 3 15 -1 25 -12 27 -14 4 -14 5 0 6 9 0 19 8 23 16 4 12 -4 15 -44 15 -49 0 -49 0 -49 -67z"></path><path d="M820 1083 c-28 -11 -50 -42 -50 -73 0 -16 -4 -30 -10 -30 -5 0 -10 -9 -10 -20 0 -17 -3 -18 -26 -10 -34 13 -47 13 -42 -2 2 -6 17 -12 32 -13 15 0 32 -9 38 -18 8 -15 12 -16 24 -6 22 18 64 20 70 4 3 -8 20 -17 36 -21 26 -5 35 -2 49 17 23 29 24 62 4 79 -8 7 -15 21 -15 31 0 21 -17 34 -22 17 -3 -8 -16 0 -34 19 -17 18 -35 29 -44 26z"></path></g></g><g fill="rgb(249,96,134)" ><g><path d="M398 1176 c-32 -30 -38 -41 -38 -76 0 -23 -5 -50 -11 -61 -6 -12 -8 -28 -4 -37 6 -15 9 -14 26 7 19 23 19 23 19 2 0 -14 6 -21 20 -21 11 0 20 5 20 12 0 6 3 8 7 5 14 -15 32 15 26 44 -4 22 -2 29 8 27 17 -4 39 74 22 79 -6 2 -9 13 -6 23 4 14 0 20 -10 20 -8 0 -21 2 -29 5 -7 3 -30 -10 -50 -29z"></path><path d="M12 1161 c-9 -5 -12 -24 -10 -52 3 -44 3 -44 29 -16 15 15 37 27 51 27 39 0 40 11 3 31 -38 21 -53 23 -73 10z"></path><path d="M1005 853 c-11 -65 -29 -122 -37 -117 -4 3 -8 -2 -8 -10 0 -17 17 -20 44 -10 8 3 12 12 9 19 -6 17 40 65 62 65 8 0 15 -4 15 -9 0 -16 31 -41 51 -41 16 0 19 7 19 45 0 41 -2 45 -24 45 -14 0 -28 5 -31 10 -3 6 -17 10 -30 10 -13 0 -30 7 -39 15 -21 22 -24 19 -31 -22z"></path><path d="M711 781 c-7 -13 -3 -21 18 -36 46 -31 53 -49 29 -80 -11 -14 -18 -29 -14 -32 8 -8 36 17 36 33 0 8 9 19 20 26 11 7 20 16 20 21 0 16 -39 49 -49 42 -7 -3 -11 2 -11 13 0 26 -37 36 -49 13z"></path><path d="M350 771 c0 -12 -5 -21 -11 -21 -18 0 -55 -44 -51 -60 1 -8 -6 -32 -17 -52 -12 -25 -15 -38 -7 -38 16 0 50 41 51 63 2 24 26 47 32 30 6 -15 73 -18 73 -3 0 6 -12 15 -26 20 -21 8 -25 15 -22 42 2 19 -2 33 -9 35 -8 3 -13 -4 -13 -16z"></path><path d="M100 755 c-14 -17 -4 -55 16 -55 8 0 14 -7 14 -15 0 -8 9 -15 20 -15 11 0 20 7 20 15 0 13 4 14 21 5 11 -7 22 -10 24 -8 8 8 -8 48 -19 47 -25 -3 -34 2 -39 21 -6 23 -39 27 -57 5z"></path><path d="M936 628 c-9 -12 -16 -42 -16 -65 0 -40 2 -43 23 -38 26 6 40 -2 56 -32 6 -13 18 -23 25 -23 22 0 4 -54 -20 -58 -26 -5 -43 -22 -21 -22 10 0 25 -5 35 -11 14 -9 27 -8 55 6 20 9 34 22 31 27 -4 6 -8 30 -9 54 -2 44 -2 44 61 44 90 0 94 3 94 65 0 52 0 52 -71 54 -39 1 -76 4 -81 7 -6 4 -7 -17 -3 -53 6 -56 6 -58 -21 -70 -15 -7 -31 -10 -35 -7 -12 7 -11 34 1 34 6 0 10 7 10 15 0 8 -4 15 -10 15 -5 0 -10 7 -10 15 0 9 -7 18 -15 21 -8 3 -17 14 -20 25 -8 26 -40 24 -59 -3z"></path><path d="M192 572 c-7 -5 -10 -16 -6 -25 3 -9 10 -14 15 -11 5 3 9 -1 9 -8 1 -8 6 -6 15 5 24 32 0 60 -33 39z"></path><path d="M446 526 c6 -16 36 -26 80 -26 26 0 33 -5 38 -26 5 -20 10 -23 21 -14 10 8 17 6 29 -12 16 -22 16 -22 16 2 1 22 2 23 11 8 6 -11 7 -50 2 -105 -7 -77 -10 -88 -28 -91 -41 -7 -49 -12 -37 -24 13 -13 16 -48 4 -48 -4 0 -13 -9 -20 -20 -11 -19 -8 -22 44 -45 65 -29 86 -30 142 -11 36 13 41 13 46 -1 4 -9 14 -13 26 -10 11 3 20 1 20 -4 0 -16 30 -10 60 13 17 12 30 26 30 31 0 5 16 25 35 43 36 33 36 33 -5 54 -22 11 -38 25 -35 30 3 4 0 10 -7 12 -9 3 -8 9 5 22 18 19 23 46 8 46 -5 0 -11 -5 -13 -11 -2 -6 -16 -11 -31 -11 -15 0 -30 -4 -33 -9 -3 -5 -12 -9 -20 -9 -8 0 -13 4 -9 9 3 6 -4 25 -15 43 -11 18 -20 43 -20 55 0 16 -5 20 -19 16 -13 -3 -20 2 -25 21 -4 17 -13 26 -26 26 -11 0 -20 5 -20 11 0 6 -20 9 -51 8 -28 -2 -53 1 -57 7 -15 21 -54 34 -102 34 -38 0 -48 -3 -44 -14z"></path><path d="M340 521 c0 -12 48 -23 71 -16 34 11 20 25 -26 25 -25 0 -45 -4 -45 -9z"></path></g></g><g fill="rgb(233,160,166)" ><g><path d="M490 1210 c-21 -41 -29 -100 -10 -70 8 12 10 10 11 -10 1 -25 1 -25 12 2 13 32 43 42 71 22 11 -7 30 -14 41 -14 25 -1 69 -36 60 -50 -8 -12 34 -13 54 -1 7 5 11 13 7 19 -8 13 -74 47 -108 56 -16 3 -28 11 -28 17 0 18 -54 69 -72 69 -10 0 -26 -16 -38 -40z"></path><path d="M108 973 c-31 -16 -36 -37 -12 -51 14 -8 13 -12 -10 -29 -16 -13 -26 -31 -26 -47 0 -19 -5 -26 -20 -26 -11 0 -20 5 -20 11 0 5 -4 7 -10 4 -16 -10 -12 -75 5 -75 7 0 18 -8 24 -17 9 -17 10 -17 23 0 11 15 13 3 11 -75 -3 -107 11 -142 47 -120 11 6 27 12 35 12 9 0 13 5 10 10 -4 6 2 36 11 68 10 31 18 61 18 65 1 5 10 15 20 23 11 8 14 14 8 14 -21 0 -13 28 11 36 12 5 26 7 31 6 4 -2 14 3 22 9 23 19 18 -24 -6 -54 -20 -26 -20 -26 0 -32 15 -5 28 1 45 19 17 18 20 26 10 26 -8 0 -16 3 -16 8 -1 4 -3 19 -4 34 -2 15 -9 37 -15 48 -11 20 -17 21 -65 15 -65 -8 -75 4 -35 43 16 17 30 34 30 39 0 5 -16 15 -35 23 -19 8 -35 17 -35 22 0 11 -21 8 -52 -9z m39 -230 c4 -10 11 -21 17 -25 6 -4 -3 -8 -20 -8 -34 0 -50 20 -31 39 16 16 27 14 34 -6z m13 -53 c0 -5 -5 -10 -11 -10 -5 0 -7 5 -4 10 3 6 8 10 11 10 2 0 4 -4 4 -10z"></path><path d="M1066 895 c-3 -8 -15 -15 -26 -15 -30 0 -24 -19 8 -25 15 -4 35 -10 44 -16 10 -5 27 -9 38 -9 16 0 20 -7 20 -35 0 -24 -5 -35 -14 -35 -8 0 -18 -9 -21 -20 -6 -18 -12 -20 -58 -14 -28 3 -55 11 -59 17 -5 8 -8 6 -8 -5 0 -24 -17 -23 -25 2 -8 24 -18 25 -39 5 -8 -8 -19 -15 -24 -15 -26 0 -72 -85 -72 -134 0 -35 20 -49 42 -30 14 14 18 14 22 3 13 -42 16 -49 26 -49 5 0 10 16 10 36 0 52 28 94 62 94 18 0 28 -5 28 -15 0 -16 9 -19 34 -9 12 5 15 15 12 43 -3 20 -3 28 0 19 8 -26 17 -23 53 18 28 30 37 34 63 29 29 -7 30 -6 25 21 -11 56 -25 99 -26 80 -1 -19 -1 -19 -14 -1 -8 10 -19 15 -25 11 -8 -5 -12 3 -12 22 0 39 -51 61 -64 27z"></path><path d="M732 808 c-16 -16 -15 -28 3 -28 8 0 12 -6 9 -14 -8 -21 15 -30 42 -15 27 14 32 29 10 29 -8 0 -18 9 -21 20 -7 23 -25 26 -43 8z"></path><path d="M824 498 c-5 -7 -9 -16 -10 -20 -1 -5 -2 -9 -4 -10 -1 -2 -3 -15 -4 -30 -2 -35 12 -35 45 0 32 34 43 62 25 62 -8 0 -21 3 -29 6 -8 3 -19 -1 -23 -8z"></path></g></g><g fill="rgb(200,204,217)" ><g><path d="M32 638 c-7 -57 -2 -112 13 -128 8 -9 15 -22 15 -28 0 -16 18 -15 36 2 20 21 17 54 -6 61 -15 5 -19 12 -14 30 7 27 -15 85 -31 85 -6 0 -12 -10 -13 -22z"></path><path d="M1082 385 c-7 -8 -24 -15 -37 -15 -32 0 -38 -13 -14 -33 20 -17 66 -22 85 -9 18 12 23 60 7 66 -21 8 -26 7 -41 -9z"></path><path d="M948 190 c-16 -16 -28 -33 -28 -37 0 -18 -60 -53 -92 -53 -37 0 -71 -18 -50 -27 6 -2 12 -16 12 -29 0 -14 6 -27 14 -30 17 -7 76 34 76 53 0 8 12 13 31 13 16 0 28 4 25 8 -3 5 10 21 29 37 28 21 35 34 35 61 0 42 -16 43 -52 4z"></path><path d="M543 145 c-7 -19 -5 -20 30 -29 33 -8 39 17 8 34 -26 13 -31 13 -38 -5z"></path></g></g><g fill="rgb(239,193,201)" ><g><path d="M360 1237 c0 -7 7 -23 16 -36 14 -19 14 -25 3 -32 -8 -5 -24 -7 -35 -4 -32 7 -50 -20 -38 -54 23 -60 -25 -93 -92 -65 -27 11 -39 13 -42 5 -2 -6 -9 -17 -16 -24 -7 -7 -19 -23 -26 -36 -11 -21 -10 -23 3 -18 9 3 17 3 19 -1 2 -4 18 -15 36 -23 42 -20 82 -14 82 14 0 18 4 19 46 13 45 -6 46 -5 42 19 -3 14 0 33 7 42 7 10 10 32 8 55 -5 33 -2 41 31 70 39 34 45 48 21 48 -8 0 -23 9 -32 20 -20 23 -33 26 -33 7z"></path><path d="M520 1238 c0 -6 3 -8 7 -5 10 11 32 -13 26 -29 -8 -21 20 -17 40 6 9 11 23 20 31 20 8 0 18 5 21 10 4 6 -18 10 -59 10 -44 0 -66 -4 -66 -12z"></path><path d="M452 1073 c2 -25 8 -48 15 -50 12 -4 15 21 6 70 -8 45 -24 30 -21 -20z"></path><path d="M990 928 c0 -45 72 -81 86 -43 4 8 12 15 19 15 18 0 30 19 18 31 -4 4 -34 11 -66 15 -56 7 -57 6 -57 -18z"></path><path d="M54 755 c-9 -14 -14 -31 -11 -40 4 -8 2 -17 -3 -20 -12 -7 -13 -45 -2 -45 14 0 31 -52 25 -80 -4 -22 -1 -29 16 -35 12 -3 21 -15 21 -26 0 -11 7 -19 17 -19 15 0 15 -1 0 -18 -10 -10 -17 -24 -17 -31 0 -15 25 -41 39 -41 5 0 11 -8 14 -17 3 -14 6 -12 15 9 12 29 7 57 -12 71 -7 4 -3 13 12 25 13 10 24 30 25 47 2 27 -1 30 -32 33 -18 2 -38 -1 -44 -7 -14 -14 -36 16 -37 51 0 17 7 31 20 38 11 6 20 21 20 33 -1 21 -1 21 -15 3 -14 -18 -15 -18 -21 -2 -4 10 -2 21 6 26 9 6 9 9 1 15 -9 5 -9 10 -1 20 12 15 6 35 -10 35 -5 0 -17 -11 -26 -25z"></path><path d="M1090 445 c0 -3 2 -5 5 -5 3 0 5 2 5 5 0 3 -2 5 -5 5 -3 0 -5 -2 -5 -5z"></path><path d="M1060 394 c-16 -8 -28 -10 -34 -4 -13 13 -66 13 -66 1 0 -5 -9 -13 -20 -16 -12 -4 -20 -14 -19 -23 3 -32 -1 -41 -22 -47 -15 -5 -17 -10 -9 -20 13 -15 82 -16 92 -1 11 16 10 56 -2 56 -5 0 -10 3 -10 8 0 4 23 7 50 7 37 0 57 5 75 21 38 32 14 45 -35 18z"></path><path d="M760 130 c-13 -9 -12 -13 7 -29 12 -10 32 -17 45 -16 13 1 31 3 41 4 17 1 17 2 2 17 -8 9 -22 13 -31 10 -8 -3 -17 1 -20 9 -7 17 -23 19 -44 5z"></path></g></g><g fill="rgb(230,224,234)" ><g><path d="M1061 716 c-7 -9 -11 -29 -9 -46 3 -19 0 -31 -10 -35 -11 -4 -13 1 -9 17 3 13 -1 32 -9 42 -13 19 -14 19 -14 -7 0 -24 -3 -27 -37 -27 -48 0 -84 -10 -78 -20 3 -5 23 -6 44 -4 32 3 41 0 46 -15 3 -11 12 -22 20 -25 8 -3 15 -12 15 -20 0 -8 6 -17 13 -19 10 -4 10 -6 0 -6 -18 -1 -16 -50 2 -57 8 -3 28 0 45 7 37 17 39 46 12 157 -15 64 -20 72 -31 58z"></path><path d="M863 578 c-21 -29 -35 -67 -29 -77 19 -29 102 7 86 37 -5 10 -11 25 -14 35 -6 20 -29 23 -43 5z"></path><path d="M90 500 c-10 -6 -10 -15 -2 -38 8 -24 8 -32 -4 -36 -15 -6 -19 -32 -6 -39 4 -2 24 -7 45 -11 33 -6 37 -5 37 14 0 11 -5 20 -11 20 -6 0 -17 7 -26 15 -14 14 -14 18 1 34 9 10 16 22 16 28 0 14 -34 23 -50 13z"></path><path d="M947 361 c-17 -6 -16 -8 7 -21 29 -15 33 -32 12 -53 -11 -11 -12 -17 -3 -26 17 -17 34 -13 51 11 19 27 21 49 4 46 -6 -2 -14 5 -16 15 -2 10 2 17 12 17 9 0 16 3 16 8 0 9 -60 12 -83 3z"></path><path d="M590 128 c1 -7 10 -24 21 -37 17 -21 22 -22 30 -10 8 12 11 11 23 -3 15 -20 44 -23 99 -7 43 12 45 18 13 41 -20 14 -29 15 -60 6 -30 -9 -43 -9 -72 5 -41 20 -54 21 -54 5z"></path><path d="M790 45 c0 -3 2 -5 5 -5 3 0 5 2 5 5 0 3 -2 5 -5 5 -3 0 -5 -2 -5 -5z"></path></g></g></svg>